<?xml version="1.0" encoding="utf-8"?>
<!-- Svg Vector Icons : http://www.onlinewebfonts.com/icon -->
<!DOCTYPE svg PUBLIC "-//W3C//DTD SVG 1.1//EN" "http://www.w3.org/Graphics/SVG/1.1/DTD/svg11.dtd">
<svg version="1.1" xmlns="http://www.w3.org/2000/svg" xmlns:xlink="http://www.w3.org/1999/xlink" fill="#ffffff" x="0px" y="0px" viewBox="0 0 1000 1000" enable-background="new 0 0 1000 1000" xml:space="preserve">
<metadata> Svg Vector Icons : http://www.onlinewebfonts.com/icon </metadata>
<g><g transform="translate(0.000000,511.000000) scale(0.100000,-0.100000)"><path d="M4333.9,4986.6C3342.1,4778.9,2617.5,3941.7,2573.3,2952c-13.2-309.3,11-503.7,103.8-793.1c83.9-260.7,143.6-353.4,236.4-362.3c79.5-8.8,139.2,42,139.2,117.1c0,30.9-26.5,110.4-57.4,181.2c-152.4,346.8-192.2,826.2-99.4,1210.6c265.1,1082.5,1389.5,1692.2,2465.3,1334.3c486-161.3,874.8-505.9,1091.3-969.8c141.4-304.9,167.9-426.3,167.9-817.4c0-388.8-35.3-561.1-176.7-839.5c-88.4-176.7-95-225.3-30.9-289.4c108.3-108.2,214.3-13.3,344.6,311.5c112.7,276.1,150.2,481.6,148,817.4c0,353.5-50.8,587.6-183.4,874.8c-119.3,254-227.5,408.7-433,623c-276.1,291.6-576.6,472.8-983,594.3c-154.6,46.4-243,57.4-508.1,64.1C4585.8,5013.1,4428.9,5006.5,4333.9,4986.6z"/><path d="M5160.1,3826.8c-119.3-30.9-298.2-141.4-375.5-232l-75.1-88.4l-72.9,70.7C4442.2,3765,4113,3815.8,3859,3694.3c-152.4-70.7-302.6-220.9-371.1-373.3c-48.6-103.8-48.6-108.3-55.2-2094.2l-4.4-1992.6l-260.7,265.1c-477.2,488.2-782,664.9-1053.7,609.7c-258.5-53-470.5-419.7-410.9-704.7c24.3-110.4,393.2-784.2,1276.9-2328.4c415.3-722.4,486-826.2,746.7-1084.7c419.7-415.3,941.1-678.2,1513.2-762.1c271.7-39.8,711.3-15.5,978.6,55.2c1135.5,293.8,1955,1274.6,2069.9,2472c15.5,154.6,22.1,720.2,17.7,1495.5l-6.6,1248.1l-57.4,123.7c-75.1,159-187.8,282.8-324.7,357.9c-205.4,110.5-404.3,106-609.7-17.7L7185.9,891l-48.6,97.2c-66.3,130.3-225.3,285-366.7,355.7c-106,50.8-137,55.2-304.9,46.4c-159.1-8.8-201-19.9-296-79.5l-110.4-68.5l-6.6,1020.6l-6.6,1020.6l-57.4,123.7c-117.1,249.6-351.3,413.1-611.9,428.6C5294.9,3840.1,5197.7,3837.9,5160.1,3826.8z M5520.2,3526.4c110.5-46.4,159.1-92.8,207.7-198.8c37.5-83.9,42-185.6,42-1760.6c0-1645.8,0-1674.5,44.2-1718.7c50.8-50.8,128.1-57.4,190-13.2c37.5,28.7,42,68.5,53,514.7c11,459.5,13.3,486,64.1,565.5c28.7,46.4,92.8,110.5,141.4,143.6c75.1,50.8,114.9,59.6,238.6,59.6c130.3,0,161.3-8.8,243-66.3c50.8-35.4,117.1-110.5,145.8-163.5c48.6-92.8,50.8-119.3,50.8-547.9c0-419.7,2.2-450.6,44.2-492.6c57.4-57.4,141.4-57.4,198.8,0c39.8,39.8,44.2,72.9,44.2,318.1c0,148,11,304.9,24.3,346.8c30.9,88.4,117.1,187.8,201,232c77.3,39.8,267.3,39.8,346.8-2.2c86.1-44.2,172.3-150.2,201-249.6c17.7-57.4,22.1-508.1,15.5-1484.5c-8.8-1519.8-6.6-1477.9-139.2-1873.3C7475.3-4064,6213.8-4753.2,4994.5-4439.6c-532.4,136.9-1047.1,501.4-1360.8,965.4c-125.9,185.6-1458,2516.2-1617,2829.8c-81.7,165.7-53,318.1,86.2,435.2c95,79.5,198.8,75.1,351.2-11c152.4-88.4,503.7-428.6,737.8-713.5c287.2-351.3,309.3-371.1,380-371.1c39.8-2.2,79.5,17.7,103.8,48.6c37.5,46.4,39.8,159.1,39.8,2242.2v2191.4l50.8,97.2c145.8,278.3,627.4,282.8,782,8.8l50.8-88.4V1544.8c0-1623.7,0-1652.4,44.2-1696.6c50.8-50.8,128.1-57.4,190-13.2c39.8,30.9,42,81.7,53,1754l11,1723.1l66.3,84c37.6,44.2,101.6,99.4,143.6,121.5C5202.1,3570.6,5407.6,3572.8,5520.2,3526.4z"/></g></g>
</svg>
